PathFileType	4	(X/Y/Z)	c:/Users/goper/Files/vsCode/490R/osim_files/C07/C07_Fast_07.trc
DataRate	CameraRate	NumFrames	NumMarkers	Units                	OrigDataRate	OrigDataStartFrame	OrigNumFrames
250.00	250.00	5	36	mm	250.0	1417	2266
                Frame#	Time	LPSIS			LASIS			LTH1			LTH2			LTH3			LTH4			LLFE			LMFE			LSH1			LSH2			LSH3			LSH4			LLMAL			LMMAL			LCAL			LMTP5			LTOE			LMTP1			RPSIS			RASIS			RTH1			RTH2			RTH3			RTH4			RLFE			RMFE			RSH1			RSH2			RSH3			RSH4			RLMAL			RMMAL			RCAL			RMTP1			RTOE			RMTP5		
		X1	Y1	Z1	X2	Y2	Z2	X3	Y3	Z3	X4	Y4	Z4	X5	Y5	Z5	X6	Y6	Z6	X7	Y7	Z7	X8	Y8	Z8	X9	Y9	Z9	X10	Y10	Z10	X11	Y11	Z11	X12	Y12	Z12	X13	Y13	Z13	X14	Y14	Z14	X15	Y15	Z15	X16	Y16	Z16	X17	Y17	Z17	X18	Y18	Z18	X19	Y19	Z19	X20	Y20	Z20	X21	Y21	Z21	X22	Y22	Z22	X23	Y23	Z23	X24	Y24	Z24	X25	Y25	Z25	X26	Y26	Z26	X27	Y27	Z27	X28	Y28	Z28	X29	Y29	Z29	X30	Y30	Z30	X31	Y31	Z31	X32	Y32	Z32	X33	Y33	Z33	X34	Y34	Z34	X35	Y35	Z35	X36	Y36	Z36

1417	5.66400	0.00000	0.00000	0.00000	-2922.62378	962.57074	475.02219	0.00000	0.00000	0.00000	0.00000	0.00000	0.00000	0.00000	0.00000	0.00000	-2982.61035	729.25647	563.63507	0.00000	0.00000	0.00000	-3008.34033	512.75476	535.64404	-2963.70020	376.34390	467.73575	0.00000	0.00000	0.00000	0.00000	0.00000	0.00000	0.00000	0.00000	0.00000	-2876.78027	247.21519	283.88373	0.00000	0.00000	0.00000	-2857.40723	251.58640	190.52588	-2889.73193	105.75979	316.96136	-2957.24707	78.14095	311.06256	0.00000	0.00000	0.00000	0.00000	0.00000	0.00000	-3136.08765	982.63269	337.51270	-3170.31567	837.89648	264.96152	0.00000	0.00000	0.00000	-3192.40015	678.64307	269.76221	-3198.45532	762.31378	342.53632	-3189.61475	499.87808	270.89536	0.00000	0.00000	0.00000	-3164.75488	330.79492	180.62514	-3205.30640	293.30167	193.51550	0.00000	0.00000	0.00000	-3195.03882	277.86920	222.73418	-3127.66699	107.91010	161.28888	-3079.06177	108.56411	229.79860	-3058.03369	51.04200	145.74191	-3166.54785	39.57523	327.82816	-3218.59985	49.39819	317.19427	-3238.16675	37.11721	241.90480
1418	5.66800	0.00000	0.00000	0.00000	-2924.06299	963.42120	475.90417	0.00000	0.00000	0.00000	0.00000	0.00000	0.00000	0.00000	0.00000	0.00000	-2983.37500	731.05920	566.06287	0.00000	0.00000	0.00000	-3009.89258	514.17682	539.69165	-2969.01904	374.43393	471.00287	0.00000	0.00000	0.00000	0.00000	0.00000	0.00000	0.00000	0.00000	0.00000	-2884.26025	244.57719	287.93777	0.00000	0.00000	0.00000	-2865.96802	247.23422	194.66061	-2900.55078	103.61591	322.17032	-2974.50610	80.45588	318.12015	0.00000	0.00000	0.00000	-3172.46533	838.23090	267.25989	-3138.61426	983.00922	340.47684	0.00000	0.00000	0.00000	0.00000	0.00000	0.00000	-3193.81567	678.88989	271.32224	0.00000	0.00000	0.00000	-3190.28857	500.13348	271.43207	0.00000	0.00000	0.00000	0.00000	0.00000	0.00000	-3205.66895	293.59476	193.68297	0.00000	0.00000	0.00000	-3197.26514	278.88235	222.91986	-3127.79272	108.30741	161.42781	-3079.05005	108.99037	229.94348	-3058.09131	51.36934	145.84659	-3166.62231	39.64310	327.87531	-3218.65259	49.39087	317.25720	-3238.24634	37.18029	241.93648
1419	5.67200	-2897.15137	987.85138	295.57959	-2925.41162	964.12805	476.80505	0.00000	0.00000	0.00000	0.00000	0.00000	0.00000	0.00000	0.00000	0.00000	-2984.20532	732.91364	568.50757	-2969.11133	560.68781	439.43866	-3011.40649	515.39374	543.84106	-2973.18823	373.69781	475.31836	0.00000	0.00000	0.00000	0.00000	0.00000	0.00000	0.00000	0.00000	0.00000	-2890.91016	241.58574	292.83426	0.00000	0.00000	0.00000	-2873.80005	243.16908	198.81116	-2907.37695	102.90919	325.40500	-2980.42505	78.25308	323.06982	0.00000	0.00000	0.00000	0.00000	0.00000	0.00000	-3141.07739	983.56232	343.67111	-3174.62378	838.56842	269.52664	0.00000	0.00000	0.00000	-3195.18848	679.08417	272.85269	-3201.48535	761.87061	346.48901	0.00000	0.00000	0.00000	-2927.94800	508.97598	227.22765	-3165.39844	331.45108	180.98363	-3206.01099	293.90036	193.86137	0.00000	0.00000	0.00000	-3197.55005	279.20508	223.00536	0.00000	0.00000	0.00000	-3079.17188	109.34782	230.10059	-3058.12354	51.74660	145.91922	-3166.68188	39.66647	327.96432	-3218.65698	49.33058	317.29651	-3238.24561	37.18451	241.96834
1420	5.67600	-2899.90527	988.64612	296.26682	-2926.73047	964.82184	477.71509	0.00000	0.00000	0.00000	0.00000	0.00000	0.00000	0.00000	0.00000	0.00000	-2984.87793	734.61053	570.91943	0.00000	0.00000	0.00000	-3012.71069	516.74097	547.81378	-2977.56274	372.80023	479.79477	0.00000	0.00000	0.00000	0.00000	0.00000	0.00000	-2940.22974	408.19064	444.64999	-2898.39038	238.74568	297.06955	0.00000	0.00000	0.00000	-2880.07031	239.49419	199.70711	-2917.80811	100.86309	331.12485	-2996.91431	80.29418	330.88144	0.00000	0.00000	0.00000	0.00000	0.00000	0.00000	-3143.91235	982.67010	347.25742	0.00000	0.00000	0.00000	-2936.11548	546.58594	263.96677	0.00000	0.00000	0.00000	0.00000	0.00000	0.00000	-3191.43506	500.49286	272.30472	0.00000	0.00000	0.00000	-3165.62817	331.75327	181.15152	-3206.35156	294.25183	193.98984	0.00000	0.00000	0.00000	-3197.86572	279.55923	223.10655	0.00000	0.00000	0.00000	0.00000	0.00000	0.00000	-3058.23926	52.18649	146.02193	-3166.67578	39.64513	328.02209	-3218.62622	49.26348	317.34155	-3238.25269	37.17673	241.98833
1421	5.68000	0.00000	0.00000	0.00000	-2928.10962	965.53204	478.62241	0.00000	0.00000	0.00000	0.00000	0.00000	0.00000	0.00000	0.00000	0.00000	-2985.37427	736.16205	573.31494	0.00000	0.00000	0.00000	-3025.03223	513.37732	558.16370	-2981.59839	371.99225	484.14230	0.00000	0.00000	0.00000	0.00000	0.00000	0.00000	-2943.38965	406.47595	448.97726	-2905.87402	235.79108	301.47784	0.00000	0.00000	0.00000	-2887.60107	235.04366	205.77101	-2928.10254	98.79160	337.14526	-3007.97559	80.43211	337.94528	-3022.21436	92.19804	279.73984	0.00000	0.00000	0.00000	-3146.34741	982.84729	349.97717	-2901.51074	618.97223	258.80042	0.00000	0.00000	0.00000	0.00000	0.00000	0.00000	0.00000	0.00000	0.00000	-3191.94336	500.72339	272.71378	0.00000	0.00000	0.00000	0.00000	0.00000	0.00000	-3206.57446	294.61594	194.11034	0.00000	0.00000	0.00000	-3198.19409	279.90164	223.22229	0.00000	0.00000	0.00000	0.00000	0.00000	0.00000	-3058.29175	52.59381	146.08321	-3166.67456	39.63339	328.07986	-3218.66992	49.21674	317.40485	-3238.19287	37.11856	242.02766
